<svg width="40" height="40" viewBox="0 0 40 40" fill="none" xmlns="http://www.w3.org/2000/svg">
<circle cx="20" cy="20" r="20" fill="#8D83E0"/>
<path d="M6.40331 19.6302L11.6911 21.6019L13.7525 28.2341C13.8421 28.6822 14.3798 28.7718 14.7383 28.5029L17.6959 26.0831C17.9648 25.8142 18.4129 25.8142 18.7714 26.0831L24.0592 29.9369C24.4177 30.2058 24.9554 30.0265 25.045 29.5784L28.9885 10.7575C29.0781 10.3093 28.63 9.86122 28.1819 10.0405L6.40331 18.4651C5.86556 18.6443 5.86556 19.4509 6.40331 19.6302ZM13.4836 20.616L23.8799 14.2528C24.0592 14.1632 24.2384 14.432 24.0592 14.5216L15.5449 22.4982C15.2761 22.767 15.0072 23.1255 15.0072 23.5736L14.7383 25.7246C14.7383 25.9935 14.2902 26.0831 14.2006 25.7246L13.1251 21.7812C12.8562 21.333 13.0355 20.7953 13.4836 20.616Z" fill="white"/>
</svg>
